<mxfile host="app.diagrams.net" modified="2023-08-09T06:38:02.623Z" agent="Mozilla/5.0 (Macintosh; Intel Mac OS X 10_15_7) AppleWebKit/537.36 (KHTML, like Gecko) Chrome/115.0.0.0 Safari/537.36" etag="pbt5HDkBQlm7e7Xw3l4b" version="21.6.6" type="device">
  <diagram name="TouristApp Flow" id="qJpEF-8JX8ictMsBnSVu">
    <mxGraphModel dx="3364" dy="1540" grid="0" gridSize="10" guides="1" tooltips="1" connect="1" arrows="1" fold="1" page="0" pageScale="1" pageWidth="850" pageHeight="1100" math="0" shadow="0">
      <root>
        <mxCell id="atEQQB-VKV7B3jNsFOuc-0" />
        <mxCell id="atEQQB-VKV7B3jNsFOuc-1" parent="atEQQB-VKV7B3jNsFOuc-0" />
        <mxCell id="atEQQB-VKV7B3jNsFOuc-2" value="" style="rounded=1;whiteSpace=wrap;html=1;fillColor=none;strokeColor=#82b366;verticalAlign=top;align=center;fontStyle=1;strokeWidth=2;fontSize=17;arcSize=0;" parent="atEQQB-VKV7B3jNsFOuc-1" vertex="1">
          <mxGeometry x="-704" y="-141" width="1048" height="802" as="geometry" />
        </mxCell>
        <mxCell id="atEQQB-VKV7B3jNsFOuc-4" value="public" style="rounded=1;whiteSpace=wrap;html=1;fillColor=none;align=left;verticalAlign=top;fontStyle=1;fontSize=17;arcSize=0;dashed=1;" parent="atEQQB-VKV7B3jNsFOuc-1" vertex="1">
          <mxGeometry x="-638" y="36" width="188" height="474" as="geometry" />
        </mxCell>
        <mxCell id="atEQQB-VKV7B3jNsFOuc-5" value="db-superapp" style="rounded=1;whiteSpace=wrap;html=1;fillColor=none;align=left;verticalAlign=top;fontStyle=1;fontSize=17;arcSize=0;dashed=1;" parent="atEQQB-VKV7B3jNsFOuc-1" vertex="1">
          <mxGeometry x="121" y="36" width="194" height="475" as="geometry" />
        </mxCell>
        <mxCell id="atEQQB-VKV7B3jNsFOuc-6" value="app" style="rounded=1;whiteSpace=wrap;html=1;fillColor=none;align=left;verticalAlign=top;fontStyle=1;fontSize=17;arcSize=0;dashed=1;" parent="atEQQB-VKV7B3jNsFOuc-1" vertex="1">
          <mxGeometry x="-412" y="37.5" width="497" height="472" as="geometry" />
        </mxCell>
        <mxCell id="atEQQB-VKV7B3jNsFOuc-16" style="edgeStyle=orthogonalEdgeStyle;rounded=0;orthogonalLoop=1;jettySize=auto;html=1;endArrow=classic;endFill=1;fontSize=17;" parent="atEQQB-VKV7B3jNsFOuc-1" source="atEQQB-VKV7B3jNsFOuc-17" target="atEQQB-VKV7B3jNsFOuc-19" edge="1">
          <mxGeometry relative="1" as="geometry" />
        </mxCell>
        <mxCell id="atEQQB-VKV7B3jNsFOuc-17" value="" style="shape=image;verticalLabelPosition=bottom;labelBackgroundColor=default;verticalAlign=top;aspect=fixed;imageAspect=0;image=data:image/png,iVBORw0KGgoAAAANSUhEUgAAAE8AAABfCAMAAACePGovAAAAAXNSR0IArs4c6QAAAARnQU1BAACxjwv8YQUAAACiUExURQAAAEBAQEBAQGBgYGZmZlBQUHl5eUpKSkhISHx8fEZGRkpKSnt7e319fUlJSXt7e0hISEdHR0lJSUhISH19fUhISH19fUdHR0lJSUhISEhISH5+fkhISH9/f0lJSUlJSUhISEhISElJSX9/f35+fkhISEhISH9/f0hISH9/f0lJSUhISEhISH9/f0hISH5+fklJSX5+fkhISH9/f0hISH9/f4EcwOYAAAA0dFJOUwAECAgKEBUYICEoMDY3ODxASFBYWGBiaHB4gICHjY+Xn6evr7K3v8XHzc/X3+Hn7u/09/lk87tiAAAACXBIWXMAABcRAAAXEQHKJvM/AAAC7UlEQVRYR+2Wb3+aMBCAUzsnla2ldtoum7XQyhxSy9jx/b/a7pILYH8BEt2LvuB5IZdIHvLnEhDvmTykBbhRpnLKrTqZ7vhmN/I5t+viCcrHyBVZQMrtOggAbjl0YV5CxKGdBew5cmMLDxzZkUMDeMcTSI7sjL5+BnzXeyjuOXai33dbfg/v8ycuudDvizf4sygnuuRCvy+n5JxBqEsu9PsSWgz5//o3LzeRLH0WpN8nwi3sFhwTQRTxCYcRE2BpEvEYBnzHTFM64h5VLNVxp8BJDoCsiJcvziMxk7CkWNZ5/h3mp/lCfbalOf02PlHcneaTB3VZwIwKjS9fnuZLtuoyhTv8bfkOJ/oKvRIio2vjCzDfT/GFsNEJkuywJDNdiKI481jfsMnmJacHvmcx2Zp8yVDl7Gudf5uCgylcH80fUvuk+/soSzgQGbbp8AmzUTpofFOoR75Bc5dvgMZ32zRZYkaf7ZNqWyio9dm+bevYz+/O95Wtcyt5PN/nxEwmknZ3J36+sCiSQ9H3Cejn26UTMUn7Wnj5JurkWZa6ZMXPp9ZsqY9JO37jjXeBCDL6COjCzxcksIe4b4H9fNhD+MmRHV+fx/nnxOg75gHoZeZOPOC7htLja1LMDmrLdTPZQxlLVzYFHHqPK+xgya9ZR9pfi1bmCd/pQopv5pGRkQ/FxUv1+1MdKn5Q4fL1z2dVK8S6qR3m6q36+0WHxleRqfatuFLVDrOqfplHX7wo801VPTc+7ByWKHDyYbOvb3wn+1CIFexbOXbLcFM94zC/qdj4Ll/xqn1Xb2YyHFmja8UjsvjMX65c0VhNJyzjpcf5oJ+/1ivCPlxQLCqfeYIrPHU3OgXrfKFnHPlwyZHhrqrhUlt1L/tU1Wk+nfkEdelodGb+6m3hMJXYLwM1tvjU0mgcfDxvSoz9sPhwCszuHvbhzWY0K2pm8dH21h5euj5aya9Cm4+6bhjyrVvJT7HVp7uI1AszMjIyMvKhEeIfriOiGtgZid0AAAAASUVORK5CYII=;fontSize=17;imageBackground=none;" parent="atEQQB-VKV7B3jNsFOuc-1" vertex="1">
          <mxGeometry x="-583.5020538651314" y="96.00365851151324" width="79" height="95" as="geometry" />
        </mxCell>
        <mxCell id="atEQQB-VKV7B3jNsFOuc-18" style="edgeStyle=orthogonalEdgeStyle;rounded=0;orthogonalLoop=1;jettySize=auto;html=1;entryX=0;entryY=0.5;entryDx=0;entryDy=0;endArrow=classic;endFill=1;fontSize=17;" parent="atEQQB-VKV7B3jNsFOuc-1" source="atEQQB-VKV7B3jNsFOuc-19" target="atEQQB-VKV7B3jNsFOuc-25" edge="1">
          <mxGeometry relative="1" as="geometry" />
        </mxCell>
        <mxCell id="atEQQB-VKV7B3jNsFOuc-19" value="" style="shape=image;verticalLabelPosition=bottom;labelBackgroundColor=default;verticalAlign=top;aspect=fixed;imageAspect=0;image=data:image/png,iVBORw0KGgoAAAANSUhEUgAAAEIAAABgCAMAAACe7lTnAAAAAXNSR0IArs4c6QAAAARnQU1BAACxjwv8YQUAAACWUExURQAAAEBAQEBAQGBgYGZmZlBQUHl5eUpKSkhISHx8fEZGRkpKSnt7e0lJSXt7e0hISEdHR0lJSUhISH19fUhISEdHR0lJSUhISEhISH5+fkhISElJSUlJSUhISEhISElJSX9/f35+fkhISEhISEhISH9/f0lJSUhISEhISH9/f0hISH5+fklJSX5+fkhISH9/f0hISH9/f0wNOf8AAAAwdFJOUwAECAgKEBUYICEoMDY4PEBIUFhYYGhweICAh4+Xn6evr7K3v8fNz9ff4efu7/T3+SgUYnAAAAAJcEhZcwAAFxEAABcRAcom8z8AAALFSURBVFhH7ZZdl5owEEBTWopiXXXrIhWRLaFIMU3j//9zzceAQDAEPHtOH7gPMolwkcxkBJnZJjh9hXgaRyY4wWgKW2lgbAPjCcSgCGE8gUoRwXgCO1BsYTyFXBoSGE1hTTPKSEoXMB6PcymcgmGUYpgYz4mtkVB4ZGpKtiKZQoFeuWsKXpk5oEDxhYfjOctVVAq3nFLke7YXB6VAmwm14RFVDaBAp9KTxxFguKRSOMXYAnurfnilQGv1YNb4tFq+WoGOo4rUyeok3hVOLpJsS0jrUror+E+z3/TrRo9pKFBg3b6cIoOI01Sg1DazcXPdWgqvtMvsrpW9loLvN5vMdu7UVvCN40Nk4Nx+3o7CldvXzL6z6h0F329D7WdBOrnvKlA01H5wt7doCtFQIewloCuIKjQFb+sxRH349ABRja5AIdtBpOPk2ul9CpQ9KFLvmJ6Jvp37FD7N0ki3+IRhVtgpvJJllGiJSVIPuZcURnf6FBEvUffS2IuKQixRSNWgQZ8iP/MP/dxMlFRSak/So/AuJf9MCjW6s2E4TPmLQNwpDE2xOFHGcn6u3n78GMeFfJtoSTqKlXrxwbh7q5qdfCfBjRu0FJtEfE0jcyvfYHFWVtdfQ7HLxFckHG5+a3mrHNpTrdhfxHTxZvdHsIj5irFCSNaEFbxPOUEpvY83h4YXCUkZHFmOcxaERAiaS2SDd5SXBTxUb9HtRNnhHkqWy4gwGpuT8BDnpPZByffPVFay5Y99LWiTksPmQMb8o2u4fFFJ5MJoZmbmv+HTz5viu4j/foPpz7/lZD02YVbcbj9gwkDjsrbiz1fpF4cBjAp+uH/7kA9XLK+/vqgJA0bF8ipWeYgqI+JuLYWctVjMIcXzSRVPMuwwK9CLxbMMKJbXpxXP/4qX2+1dTRiotxk/tRHXGbEqLTi3X2FRWTMzMzMfBkL/AGUxcAOBRQ8vAAAAAElFTkSuQmCC;fontSize=17;" parent="atEQQB-VKV7B3jNsFOuc-1" vertex="1">
          <mxGeometry x="-348.0027050781255" y="94.99815962357928" width="66" height="96" as="geometry" />
        </mxCell>
        <mxCell id="atEQQB-VKV7B3jNsFOuc-20" style="edgeStyle=orthogonalEdgeStyle;rounded=0;orthogonalLoop=1;jettySize=auto;html=1;entryX=0;entryY=0.5;entryDx=0;entryDy=0;endArrow=classic;endFill=1;fontSize=17;" parent="atEQQB-VKV7B3jNsFOuc-1" source="atEQQB-VKV7B3jNsFOuc-25" target="atEQQB-VKV7B3jNsFOuc-29" edge="1">
          <mxGeometry relative="1" as="geometry" />
        </mxCell>
        <mxCell id="ONGApkeO3XLPIxJwu6IX-2" style="edgeStyle=orthogonalEdgeStyle;rounded=0;orthogonalLoop=1;jettySize=auto;html=1;endArrow=none;endFill=0;strokeColor=#CCCCFF;strokeWidth=3;" parent="atEQQB-VKV7B3jNsFOuc-1" source="atEQQB-VKV7B3jNsFOuc-25" target="ONGApkeO3XLPIxJwu6IX-1" edge="1">
          <mxGeometry relative="1" as="geometry" />
        </mxCell>
        <mxCell id="atEQQB-VKV7B3jNsFOuc-25" value="" style="shape=image;verticalLabelPosition=bottom;labelBackgroundColor=default;verticalAlign=top;aspect=fixed;imageAspect=0;image=data:image/png,iVBORw0KGgoAAAANSUhEUgAAAEYAAABdCAMAAAAv4eDuAAAAAXNSR0IArs4c6QAAAARnQU1BAACxjwv8YQUAAACcUExURQAAAEBAQEBAQGBgYGZmZlBQUHl5eUpKSkhISHx8fEZGRkpKSnt7e0lJSXt7e0hISEdHR0lJSUhISH19fUhISH19fUdHR0lJSUhISEhISH5+fkhISH9/f0lJSUlJSUhISEhISElJSX9/f35+fkhISEhISEhISH9/f0lJSUhISEhISH9/f0hISH5+fklJSX5+fkhISH9/f0hISH9/f7yr4qEAAAAydFJOUwAECAgKEBUYICEoMDY4PEBIUFhYYGJocHiAgIeNj5efp6+vsre/x83P19/h5+7v9Pf5Aw7MlwAAAAlwSFlzAAAXEQAAFxEByibzPwAAAmJJREFUWEftlmt3mzAMQGm6LLQshaRJ92gzsrVkhDLmqf//v80OCli2MdZZPvVwP0nG3DjCr4iyeCwaQJoNNiJZjQ9AFLtbbHSy6hyKHbYiD9h8QnzBVgexgMM6PbPE1o4EH6Tp6gdAhq0236HAaJQdHDCyKWGF0SgxCIxsAGKMdGJnOQEwsHFp4gLgmGCiwdPEVbNalo3tYWmkRRrmDg9HE1fVqTAOD0MjLdgwL4UxT8I1SX22ODzBmqTpLdLzQj2hGmqJohn1eDQ1LDCyLaZHDM/ipF8LtsXwpLRUblwW5QFjD/KTNeUcQwLPkwm3hecZtnA8PoskD/PMBurSsQfvfo7EY7+WwBojL3Uxw8jNXoSMRtbmxefJwXO26GTiMFydHL5iNIpn3uzhAcMA0ovMYrWmjv+xpvohuNYm2blmw+UrhebRdtAWuo9WNQY2ZPeLq5qcBsZuHLwXt2fUmYVxxoSfDPGxf5M6JeEadcqlbWRZOJquHrdVZVhYmmh+UB7X12dp5IwTm8y1v/M00Uxe80q7mauJovXGNWE9mqPnemmw8Nz9csgxGuUzlBjZLAU8YjjCRvjWOrmID1/2FcYVnrKU984OY2T6b5TBRZyYmHinXD2/SX5aWRtJ7tsnfp6w868PRsbRqL7fVHCnNCS7ev77ScUhPOEoWkjG0Nz8/vMRQwnNGJpt+x8QmoVraE/jvYtp2g+lF8/N9ateDJoxNBf6U/IL60WlGUNzR4ZMM4bm+rVbTBKaMTRyxr21nbdqICTjaNSb2gfRs25paiP0sD31PRe3z5iaiYmJiXdOFP0D5sVrJ7EOwmcAAAAASUVORK5CYII=;fontSize=17;imageBackground=none;" parent="atEQQB-VKV7B3jNsFOuc-1" vertex="1">
          <mxGeometry x="-202.99997780539798" y="95.99725053267025" width="70" height="93" as="geometry" />
        </mxCell>
        <mxCell id="atEQQB-VKV7B3jNsFOuc-28" style="edgeStyle=orthogonalEdgeStyle;rounded=0;orthogonalLoop=1;jettySize=auto;html=1;endArrow=classic;endFill=1;fontSize=17;" parent="atEQQB-VKV7B3jNsFOuc-1" source="atEQQB-VKV7B3jNsFOuc-29" target="atEQQB-VKV7B3jNsFOuc-32" edge="1">
          <mxGeometry relative="1" as="geometry" />
        </mxCell>
        <mxCell id="atEQQB-VKV7B3jNsFOuc-29" value="Master" style="shape=image;verticalLabelPosition=top;labelBackgroundColor=default;verticalAlign=bottom;aspect=fixed;imageAspect=0;image=data:image/png,iVBORw0KGgoAAAANSUhEUgAAAEgAAABuCAMAAACzxqVeAAAAAXNSR0IArs4c6QAAAARnQU1BAACxjwv8YQUAAACZUExURQAAAEBAQGBgYGZmZmBgYHl5eVVVVVhYWHx8fFlZWVpaWnt7e1dXV3t7e1hYWFlZWVlZWVpaWn19fVhYWH19fVhYWFlZWVlZWVpaWn5+fllZWX9/f1lZWVpaWlpaWllZWVlZWX9/f35+fllZWVlZWVpaWn9/f1lZWVlZWVlZWX9/f1lZWX5+fllZWX5+fllZWX9/f1lZWX9/fxRSP04AAAAxdFJOUwAECAoQFRggISgwNjg8QEhQWFhgYmhweICAh42Pl5+nr6+yt7/Hzc/X3+Hn7u/09/kxBm9mAAAACXBIWXMAABcRAAAXEQHKJvM/AAADOElEQVRoQ+2X22KaQBCGDbVorImxJtFoPCRqlSC1+P4P138OwALLwbRX7X4XOsO6PzOz6w50GvEfZrNRV53PMzzEzG6gFz5H91VkiNc/iOophEA0fxrPAhjhk16+lts9BbLiQLz5GfZhyAPX4c1o6jGdervNZK+hd8S081Q95oESDa8sukc6G189hUsfXhcTTZmobTBEunO1W+EhC+sajRCSmq0YYNU9tfMg5ULCtYyxldUssIrjnpptmDihRpxQM/+u0ACHbLXQpq2StI7z3Pb353ZwntlPhgL6220cPOiVlPtDvOK7lIdKSENcI/rRsdAVe5v4OOIvsLvVq3Z8lACt41685yhepic0ukqSEgID85rDexrhB9GzeqjWkjz/eep3JmG8zYrM6YdV+XV3dKNl7iQd7OIA6uGhMK07p99a2gOxxtC+1LbGdHNLIlwqq9IQAzO1Tajhxkd1TLBrY1u7RJ1XauagQO3NDCMbNU2wFNYlHaAD7a2b+R4ro6bJuar1eeFWrSIIVS0T7Fe1igTWlIETSnFCCX9NKKx6SKsWwmO8WiY4jXCQ2gjWahTo2R8opzgsbI+HQ/Qm43DM8PAIb7uFj4Mnyj2hE/4ShbA2J5/OFz3d89BBZbwzMDj/laCQN4+8qlNgwodh1jioI4HjiLLL5ycjtgOV4WjjSB/VpYFJtmgiRoft8QvOtq61ScvaI3Wf347itdZf2gbnJ+9N4VgGKpGqRPIGujcqJu9ZwW5HMue69qhItyWSHBNG0pmAdTuUGa5pxr58U29KVY82FRvX4XA4HP89N+8X5o0970O8H1/YBXLlu3o1JEKXn1/hJUKp1KO6zUo377++4at/4pi8D9brLFT4TiRu3lsLYQrFkAhRoOQvLi/stiAR6p9yQpQkoli0qY6QRWSmBh7pAn+0Q4XuLvxlCHGuiCu90ECyahKXIdQ/kYlFaCmlQppBSUg2gO6FWjg1XaNyagykWgQlNZI1ygktsjrjPs01T4vNCplQ/yRVY5I061AhvWkqhBCNIK4Q0ggSIfxFuEIL/syrVpAIYS4mYYoiMyHINAeUCUHjJRVKA8C/FrT+wzkcDoej0/kNXpyd0+xQoeQAAAAASUVORK5CYII=;labelPosition=center;align=center;fontSize=25;imageBackground=#CCCCFF;fontStyle=1" parent="atEQQB-VKV7B3jNsFOuc-1" vertex="1">
          <mxGeometry x="139.00184037642032" y="177.99815962357934" width="72" height="110" as="geometry" />
        </mxCell>
        <mxCell id="atEQQB-VKV7B3jNsFOuc-30" value="" style="shape=image;verticalLabelPosition=bottom;labelBackgroundColor=default;verticalAlign=top;aspect=fixed;imageAspect=0;image=data:image/png,iVBORw0KGgoAAAANSUhEUgAAAEcAAABUCAMAAADnLNoYAAAAAXNSR0IArs4c6QAAAARnQU1BAACxjwv8YQUAAACfUExURQAAAEBAQEBAQGBgYGZmZlBQUHl5eUpKSkhISHx8fEZGRkpKSnt7e0lJSXt7e0hISEdHR0lJSUhISH19fUhISH19fUdHR0lJSUhISEhISH5+fkhISH9/f0lJSUlJSUhISEhISElJSX9/f35+fkhISEhISEhISH5+fn9/f0lJSUhISEhISH9/f0hISH5+fklJSX5+fkhISH9/f0hISH9/f6H+kyoAAAAzdFJOUwAECAgKEBUYICEoMDY4PEBIUFhYYGJocHiAgIeNj5efp6+vsre/x8zNz9ff4efu7/T3+cZGdPAAAAAJcEhZcwAAFxEAABcRAcom8z8AAAMGSURBVFhH7ZZtY5owEMcpHasPq1jrE9NabcENUVl2fv/Ptn+SgwIGCd3ejd8LuYTkz93lkujcZjDfRmA7H3DHpxjuKCfyubM1WiWJXlbR4S+UxoLotHC5NU2gNOVGG6aC0lxFMk2JFmzbMydKh2wzQwgFbNsyRGKulkgKVbSb2JMwrPQjUcimHZOaCLCCT2xa4PknSoopznkQFPvGN1c8LFWxJMtH7iixku/iucfNWlw1kEi8JiR2i6usultUFV6vbjvlS1/ixdAVD05vCq10txg4000x534gS/JgdJeZ4GN7NSDSpau1UNflz4/xOTHhxjVYJdroGcGrekh6r5hUSYiHPqoTGggS2Q7yEzagkxzC68XGtjFVmATO5p9wRZZiLwmNOR0jR8YXT6VijXhLerFZxnEQmnHbxiR6bIJgpx71Mo53qqZfgZ25ZFPip/LXrZdRy2LYJAFRwR0kCOvvhjdkMIQ+VjUnpJgtzT5okJG79sBWgZh0RjKCqEkGm00FX+ZEG7Y0AaUNMvLMZKtAUgkW1bRls46FSSeiiC0NjqymU31FH1Wfs610evMxW7WEtGerAIJteYZj3VdsFugRvbBpCerQdAjhiigWYiNuUqk4xm95qWADmO8OrJAh3jpwPJQXOMfDuWst9CQoqUtDDyfxtvFKUSCo6vVfYACP0qD5cpJ/YpJbVeKFOL9pH8z9WibBTl5hYcPX/FgqNRFb/DUbLsMTDzeSRsuWhd/R0fFvWV/e2HJmMO/eL4rv3Mcd+ZhaRpdfX7WFGc+5Tta75ubPL6pZz/0RsxX9Mwbfvf/+BnukXZCqyrNRo46Khg1MYR12c93sR07/rEPQCpnO/RHP7JUVKi1AhVXWUR5aw4HpScW4MtsS7T1P4sdM5reljg5MhyUbGvh4f2yRHqAC41ywjhJo6Y8KLJtTmrtulWc5/rl/1lVU0hm1KB/J6PI246ou6aDWuUbtQLH84JSWc9I/X3RzZucYdiN/uKwjhTR2OtiWvFkrOqqSQLt8d3R0dPw/OM4fyGd2U1aUjckAAAAASUVORK5CYII=;fontSize=17;" parent="atEQQB-VKV7B3jNsFOuc-1" vertex="1">
          <mxGeometry x="-700.9966666666666" y="-135.0033536783854" width="71" height="84" as="geometry" />
        </mxCell>
        <mxCell id="atEQQB-VKV7B3jNsFOuc-32" value="Standby" style="shape=image;verticalLabelPosition=middle;labelBackgroundColor=default;verticalAlign=middle;aspect=fixed;imageAspect=0;image=data:image/png,iVBORw0KGgoAAAANSUhEUgAAAEgAAABuCAMAAACzxqVeAAAAAXNSR0IArs4c6QAAAARnQU1BAACxjwv8YQUAAACZUExURQAAAEBAQGBgYGZmZmBgYHl5eVVVVVhYWHx8fFlZWVpaWnt7e1dXV3t7e1hYWFlZWVlZWVpaWn19fVhYWH19fVhYWFlZWVlZWVpaWn5+fllZWX9/f1lZWVpaWlpaWllZWVlZWX9/f35+fllZWVlZWVpaWn9/f1lZWVlZWVlZWX9/f1lZWX5+fllZWX5+fllZWX9/f1lZWX9/fxRSP04AAAAxdFJOUwAECAoQFRggISgwNjg8QEhQWFhgYmhweICAh42Pl5+nr6+yt7/Hzc/X3+Hn7u/09/kxBm9mAAAACXBIWXMAABcRAAAXEQHKJvM/AAADOElEQVRoQ+2X22KaQBCGDbVorImxJtFoPCRqlSC1+P4P138OwALLwbRX7X4XOsO6PzOz6w50GvEfZrNRV53PMzzEzG6gFz5H91VkiNc/iOophEA0fxrPAhjhk16+lts9BbLiQLz5GfZhyAPX4c1o6jGdervNZK+hd8S081Q95oESDa8sukc6G189hUsfXhcTTZmobTBEunO1W+EhC+sajRCSmq0YYNU9tfMg5ULCtYyxldUssIrjnpptmDihRpxQM/+u0ACHbLXQpq2StI7z3Pb353ZwntlPhgL6220cPOiVlPtDvOK7lIdKSENcI/rRsdAVe5v4OOIvsLvVq3Z8lACt41685yhepic0ukqSEgID85rDexrhB9GzeqjWkjz/eep3JmG8zYrM6YdV+XV3dKNl7iQd7OIA6uGhMK07p99a2gOxxtC+1LbGdHNLIlwqq9IQAzO1Tajhxkd1TLBrY1u7RJ1XauagQO3NDCMbNU2wFNYlHaAD7a2b+R4ro6bJuar1eeFWrSIIVS0T7Fe1igTWlIETSnFCCX9NKKx6SKsWwmO8WiY4jXCQ2gjWahTo2R8opzgsbI+HQ/Qm43DM8PAIb7uFj4Mnyj2hE/4ShbA2J5/OFz3d89BBZbwzMDj/laCQN4+8qlNgwodh1jioI4HjiLLL5ycjtgOV4WjjSB/VpYFJtmgiRoft8QvOtq61ScvaI3Wf347itdZf2gbnJ+9N4VgGKpGqRPIGujcqJu9ZwW5HMue69qhItyWSHBNG0pmAdTuUGa5pxr58U29KVY82FRvX4XA4HP89N+8X5o0970O8H1/YBXLlu3o1JEKXn1/hJUKp1KO6zUo377++4at/4pi8D9brLFT4TiRu3lsLYQrFkAhRoOQvLi/stiAR6p9yQpQkoli0qY6QRWSmBh7pAn+0Q4XuLvxlCHGuiCu90ECyahKXIdQ/kYlFaCmlQppBSUg2gO6FWjg1XaNyagykWgQlNZI1ygktsjrjPs01T4vNCplQ/yRVY5I061AhvWkqhBCNIK4Q0ggSIfxFuEIL/syrVpAIYS4mYYoiMyHINAeUCUHjJRVKA8C/FrT+wzkcDoej0/kNXpyd0+xQoeQAAAAASUVORK5CYII=;fontSize=17;labelPosition=right;align=left;imageBackground=#CCCCFF;" parent="atEQQB-VKV7B3jNsFOuc-1" vertex="1">
          <mxGeometry x="139.00184037642032" y="341.99815962357934" width="72" height="110" as="geometry" />
        </mxCell>
        <mxCell id="atEQQB-VKV7B3jNsFOuc-34" style="edgeStyle=orthogonalEdgeStyle;rounded=0;orthogonalLoop=1;jettySize=auto;html=1;endArrow=classic;endFill=1;fontSize=17;startArrow=none;" parent="atEQQB-VKV7B3jNsFOuc-1" source="atEQQB-VKV7B3jNsFOuc-48" target="atEQQB-VKV7B3jNsFOuc-17" edge="1">
          <mxGeometry relative="1" as="geometry" />
        </mxCell>
        <mxCell id="atEQQB-VKV7B3jNsFOuc-35" value="Internet" style="ellipse;shape=cloud;whiteSpace=wrap;html=1;fillColor=none;fontStyle=1;fontSize=25;" parent="atEQQB-VKV7B3jNsFOuc-1" vertex="1">
          <mxGeometry x="-1241" y="84.25" width="184" height="116.5" as="geometry" />
        </mxCell>
        <mxCell id="atEQQB-VKV7B3jNsFOuc-36" value="" style="shape=image;verticalLabelPosition=bottom;labelBackgroundColor=default;verticalAlign=top;aspect=fixed;imageAspect=0;image=data:image/png,iVBORw0KGgoAAAANSUhEUgAAAEkAAABUCAMAAAD55eqrAAAAAXNSR0IArs4c6QAAAARnQU1BAACxjwv8YQUAAACZUExURQAAAEBAQEBAQGBgYGZmZlBQUHl5eUpKSkhISHx8fEZGRkpKSnt7e0lJSXt7e0hISEdHR0lJSX19fUhISH19fUdHR0lJSUhISEhISH5+fkhISH9/f0lJSUlJSUhISEhISElJSX9/f35+fkhISEhISEhISH9/f0lJSUhISEhISH9/f0hISH5+fklJSX5+fkhISH9/f0hISH9/f91NhvEAAAAxdFJOUwAECAgKEBUYICEoMDY4PEBIUFhgYmhweICAh42Pl5+nr6+yt7/Hzc/X3+Hn7u/09/kfM9xoAAAACXBIWXMAABcRAAAXEQHKJvM/AAAC7klEQVRYR+2W24KaMBCGka0VtYp2V6UeWYUiq9SO7/9wnUkGDYmBaG/5bpxB8jOZA8FrYvgeJUmynI3Yf5VRAiVZyNdeYRCjQrqLJtGWFJMhX3+aYQEQl6uDLUDxolRYQDZgmwgyuEzYforRBbIu25IuSr0SVaYLodQRMjafYAZgPn8KMGXTme4JYjZVMjj5bDox2mTwOCUTaqy1Woc6RkdqxNM7u1Xm2Bko5pT42QVlNvaGnm5R7DJjz46/AzhqMpNIG7ppDrDTC6vhp9jWWhelxa6Iq3nuHnCH9alfAyzZZLoZLgnyg7ZuAbBl8yFDjIhNppsdKERTCsewrrViuPTYlIiIiCDfid8b2HA1/R4AzNmUoFCZtCDXdoOtZX/7zaFgS+KnyugFuZbBBCK2TOJqFv1DZYaDvLpyUbO9FBZsEZoQSal/eyGc2DLJQRkRQ4ik1BEaALBlUlGKDSGSUiqPLcOWSarkcFhMQ6Kc+0B485RdZFKzuwMoTTPHYy5JbrWPTuTGyot8AUe2TGZQ6MMU3ZSM4Uj0wVLomRNgV8I01ZzLsdEidiXzXhV8jta3ViU8HGoPP5zw6lvXpoSnoTbSGvSm26p99FjJXza+6bweSqmHwUMlOjOygB0r/gbPjuMy5LoYSkPsTrxj1xCRILx/M9lw/pYaLcWRZ+G4/t/vu5aWlpZXGV+JT+m8fQnv7w/V/SmdBvpnsRQR97PS9fqLvA92XKRQSDyfFOj+t68/3z2vs7/SD0ZL1zp7ByVcwtvyVmKxVMIf0l/JyJwYi+UCFMV1mpLLtiTqUz+uv7+VSv0z2nilDLiRzr4sEiLik0qYPZm0e8gNcASS/lkoiWLxZSqsm5ZVibtA9gFttAnb7iiYMoGo5RJWNeOY3zLKalEdEj++h477wiyXSmKrjGpbsXWmGpObEiVE3HafGuHinOATViJgDNaprajQApn7W+1IZMW2S0iEHHjOfKkkx0S+cO5FaWlpaWl5Hs/7B0oScin1MqMMAAAAAElFTkSuQmCC;fontSize=17;" parent="atEQQB-VKV7B3jNsFOuc-1" vertex="1">
          <mxGeometry x="-518.000048828125" y="561.0000244140625" width="73" height="84" as="geometry" />
        </mxCell>
        <mxCell id="atEQQB-VKV7B3jNsFOuc-40" value="" style="shape=image;verticalLabelPosition=bottom;labelBackgroundColor=default;verticalAlign=top;aspect=fixed;imageAspect=0;image=data:image/png,iVBORw0KGgoAAAANSUhEUgAAAE8AAABhCAMAAACgTAzyAAAAAXNSR0IArs4c6QAAAARnQU1BAACxjwv8YQUAAACuUExURQAAAEBAQEBAQGBgYGZmZlBQUHl5eUpKSkhISHx8fEZGRkpKSnt7e0lJSXt7e3t7e0hISEdHR0lJSUhISH19fUhISH19fUdHR0lJSUhISH5+fn19fUhISH5+fkhISH9/f0lJSUlJSX5+fkhISEhISElJSX9/f35+fkhISEhISH9/f0hISH5+fn9/f0lJSUhISEhISH9/f0hISH5+fklJSX5+fkhISH9/f0hISH9/f9e9gtgAAAA4dFJOUwAECAgKEBUYICEoMDY4OjxASFBYWGBiaHB4eXyAgIeNj5eYn6evr7K3v8XHzM3P19/h5+7v9Pf5m7mU6gAAAAlwSFlzAAAXEQAAFxEByibzPwAABFVJREFUWEftl2l/4jYQxolZ6gB1gSRcLeUoyQYvG2OM6wzf/4v1kTS25APZkL7YF/x/e4xk8XhmNDrcasTY9/1ZhxtfxnkjQTTm9hfp7aUc2P4fLs4ToqDf6qwhePC482b6wrmd9GscEyVzR3bfiLuBWpzmzd2hFT5x63o6C4RK+0duAuEi+X1uXYe3FWrRMzcVMosUTK+dmMd5KH6YLErp6vvywesVYbvTQPyGoqXLPTmeRBqR1u2QO+w8SwfgwYg7yrjzgxwTbSpfaKLWQvI6rslQfy0l4zofEUuyfW5UZL0FJGO7h0OMuKIctkRrNqtZEE3ZzONV+xFTxFY1eGGPTYORmKJwU5FSPGCrmiVRKcPOlnZj11vGUTn5dXpzolKhLhK1gF2/nPwDJWxVMy7nz0tmbDnRG1sZMR3Yqgbzu2AzZa1/8UyFFDrYy9ispkf0ymZKoJ3qF5OL4Rs2q8ELAzaZURIsUtbFHf+JKE3GBSKK2ZI4ajFr8nM8I7q8yiXY3s1JXBTe/xjk6hfbd0W5mmC/ND3YFct/RsZ2jfLLRVPBNF8wvs9GyjA2MxjRnq1LePkZK+nleKybXkxAkpvggp44joyaxvTW3hkwoUZEdv+QbDOblWCMsYILehvciwyPAgrZugxiMLbIgt4Oeku2cXiWF1MZDDI0rPGOaleHIKREJ7CgJ84g7T02ywZnA2pe3wkKet5wONQL4lCz2SuwZemslOIdJdlyrN1cmMgIeFes/7GuEIRbsxkoUDFZmpe53QFskvRsdiKKGp3TWEVZXjphxHuf4lVv39irdOlYwZVjzmbL3aLkDLJq7kQNFocCe0JSs63Jk3rLZi3ItK2OBaiCqPrKUIGDurVXfgfXzdqtRdPHVdd2AXVwLNQvXQPsCsnl4nJwq9tf9+GAi0dy8eMFBRA2Th6D8oqrBXE/oqBhqRjgKpNU3QVd5C7IH+vNGGFSyrfPPmZ2d13uUkY4ftSnm+YJL3m7TU75kvukdFDpNTdmKx3x9bDM3PHEhf7270HBFPGxi9K5/bV1UqQnzgzhonCudNm8AelW6Ivv6q9/nks8oYVqLH9s3spoE+5mX83cnTv1tI9nycc31X54V+3zS2ty/q76BunTrOcyqV6qaOgNzv/+Jseszp+/87MX2WGhfVQ/Wp3Vrx/e1W9B+6hM8Uqpk461kY3By4WHhh7e8bf4r3v6oeLM4rag3wk34IWpN1Ayk/NfJyk0UfpWjBhktk297kk+W33+ITubpM/Uk+GYekqgffz4Jj1rkj5zkHQnnV8d4AD/yMg5fDtWPenxBE7KUU3SZ+qV4pUPH97FgBV6xd9aDL1VcT5E10v7KKKEbyKPqteG1uuehFJeDzIifeLhd/xRnVYyPZSfGJ/X654+/pFtDPuzQbVoPaw3GU5eD62f/Pzzp/ngIno/UNGk88vNSWoM9BZkJdVLc1PQg4yKsntqUi137ty5c+eXoNX6Dz33sFZJYmv9AAAAAElFTkSuQmCC;fontSize=17;" parent="atEQQB-VKV7B3jNsFOuc-1" vertex="1">
          <mxGeometry x="-634.0033333333331" y="551.0000244140625" width="79" height="97" as="geometry" />
        </mxCell>
        <mxCell id="atEQQB-VKV7B3jNsFOuc-44" style="edgeStyle=orthogonalEdgeStyle;rounded=0;orthogonalLoop=1;jettySize=auto;html=1;entryX=0;entryY=0.5;entryDx=0;entryDy=0;fontSize=17;" parent="atEQQB-VKV7B3jNsFOuc-1" source="atEQQB-VKV7B3jNsFOuc-45" target="atEQQB-VKV7B3jNsFOuc-25" edge="1">
          <mxGeometry relative="1" as="geometry">
            <mxPoint x="-210.28567940848188" y="141.57140241350453" as="targetPoint" />
            <Array as="points">
              <mxPoint x="-246" y="280" />
              <mxPoint x="-246" y="142" />
            </Array>
          </mxGeometry>
        </mxCell>
        <mxCell id="atEQQB-VKV7B3jNsFOuc-45" value="" style="shape=image;verticalLabelPosition=bottom;labelBackgroundColor=default;verticalAlign=top;aspect=fixed;imageAspect=0;image=data:image/png,iVBORw0KGgoAAAANSUhEUgAAAEIAAABgCAMAAACe7lTnAAAAAXNSR0IArs4c6QAAAARnQU1BAACxjwv8YQUAAACWUExURQAAAEBAQEBAQGBgYGZmZlBQUHl5eUpKSkhISHx8fEZGRkpKSnt7e0lJSXt7e0hISEdHR0lJSUhISH19fUhISEdHR0lJSUhISEhISH5+fkhISElJSUlJSUhISEhISElJSX9/f35+fkhISEhISEhISH9/f0lJSUhISEhISH9/f0hISH5+fklJSX5+fkhISH9/f0hISH9/f0wNOf8AAAAwdFJOUwAECAgKEBUYICEoMDY4PEBIUFhYYGhweICAh4+Xn6evr7K3v8fNz9ff4efu7/T3+SgUYnAAAAAJcEhZcwAAFxEAABcRAcom8z8AAALFSURBVFhH7ZZdl5owEEBTWopiXXXrIhWRLaFIMU3j//9zzceAQDAEPHtOH7gPMolwkcxkBJnZJjh9hXgaRyY4wWgKW2lgbAPjCcSgCGE8gUoRwXgCO1BsYTyFXBoSGE1hTTPKSEoXMB6PcymcgmGUYpgYz4mtkVB4ZGpKtiKZQoFeuWsKXpk5oEDxhYfjOctVVAq3nFLke7YXB6VAmwm14RFVDaBAp9KTxxFguKRSOMXYAnurfnilQGv1YNb4tFq+WoGOo4rUyeok3hVOLpJsS0jrUror+E+z3/TrRo9pKFBg3b6cIoOI01Sg1DazcXPdWgqvtMvsrpW9loLvN5vMdu7UVvCN40Nk4Nx+3o7CldvXzL6z6h0F329D7WdBOrnvKlA01H5wt7doCtFQIewloCuIKjQFb+sxRH349ABRja5AIdtBpOPk2ul9CpQ9KFLvmJ6Jvp37FD7N0ki3+IRhVtgpvJJllGiJSVIPuZcURnf6FBEvUffS2IuKQixRSNWgQZ8iP/MP/dxMlFRSak/So/AuJf9MCjW6s2E4TPmLQNwpDE2xOFHGcn6u3n78GMeFfJtoSTqKlXrxwbh7q5qdfCfBjRu0FJtEfE0jcyvfYHFWVtdfQ7HLxFckHG5+a3mrHNpTrdhfxHTxZvdHsIj5irFCSNaEFbxPOUEpvY83h4YXCUkZHFmOcxaERAiaS2SDd5SXBTxUb9HtRNnhHkqWy4gwGpuT8BDnpPZByffPVFay5Y99LWiTksPmQMb8o2u4fFFJ5MJoZmbmv+HTz5viu4j/foPpz7/lZD02YVbcbj9gwkDjsrbiz1fpF4cBjAp+uH/7kA9XLK+/vqgJA0bF8ipWeYgqI+JuLYWctVjMIcXzSRVPMuwwK9CLxbMMKJbXpxXP/4qX2+1dTRiotxk/tRHXGbEqLTi3X2FRWTMzMzMfBkL/AGUxcAOBRQ8vAAAAAElFTkSuQmCC;fontSize=17;imageBackground=#CCCCFF;" parent="atEQQB-VKV7B3jNsFOuc-1" vertex="1">
          <mxGeometry x="-348.0027050781255" y="246.99815962357928" width="66" height="96" as="geometry" />
        </mxCell>
        <mxCell id="atEQQB-VKV7B3jNsFOuc-46" value="" style="edgeStyle=orthogonalEdgeStyle;rounded=0;orthogonalLoop=1;jettySize=auto;html=1;endArrow=none;endFill=1;fontSize=17;" parent="atEQQB-VKV7B3jNsFOuc-1" source="atEQQB-VKV7B3jNsFOuc-35" target="atEQQB-VKV7B3jNsFOuc-48" edge="1">
          <mxGeometry relative="1" as="geometry">
            <mxPoint x="-1057" y="142.5" as="sourcePoint" />
            <mxPoint x="-600.5020538651315" y="143.50000000000023" as="targetPoint" />
          </mxGeometry>
        </mxCell>
        <mxCell id="atEQQB-VKV7B3jNsFOuc-47" style="edgeStyle=orthogonalEdgeStyle;rounded=0;orthogonalLoop=1;jettySize=auto;html=1;entryX=0;entryY=0.5;entryDx=0;entryDy=0;fontSize=17;exitX=0.5;exitY=1;exitDx=0;exitDy=0;startArrow=none;" parent="atEQQB-VKV7B3jNsFOuc-1" source="atEQQB-VKV7B3jNsFOuc-48" target="cGYBdaZTut-XPymzbA_x-0" edge="1">
          <mxGeometry relative="1" as="geometry">
            <Array as="points">
              <mxPoint x="-858" y="295" />
              <mxPoint x="-584" y="295" />
            </Array>
            <mxPoint x="-663.9986411830359" y="294.9957317243302" as="sourcePoint" />
          </mxGeometry>
        </mxCell>
        <mxCell id="atEQQB-VKV7B3jNsFOuc-48" value="Imperva" style="rounded=1;whiteSpace=wrap;html=1;fontSize=25;fontStyle=1" parent="atEQQB-VKV7B3jNsFOuc-1" vertex="1">
          <mxGeometry x="-918" y="113.5" width="120" height="60" as="geometry" />
        </mxCell>
        <mxCell id="ONGApkeO3XLPIxJwu6IX-1" value="Namespace : touristapp" style="rounded=1;whiteSpace=wrap;html=1;fillColor=#CCCCFF;align=left;verticalAlign=top;fontStyle=1;fontSize=17;arcSize=0;dashed=1;" parent="atEQQB-VKV7B3jNsFOuc-1" vertex="1">
          <mxGeometry x="-217" y="266" width="279" height="190" as="geometry" />
        </mxCell>
        <mxCell id="ONGApkeO3XLPIxJwu6IX-3" value="New resources" style="rounded=1;whiteSpace=wrap;html=1;fillColor=#CCCCFF;align=center;verticalAlign=middle;fontStyle=1;fontSize=17;arcSize=0;dashed=1;" parent="atEQQB-VKV7B3jNsFOuc-1" vertex="1">
          <mxGeometry x="-301" y="-223" width="279" height="50" as="geometry" />
        </mxCell>
        <mxCell id="cGYBdaZTut-XPymzbA_x-0" value="" style="shape=image;verticalLabelPosition=bottom;labelBackgroundColor=default;verticalAlign=top;aspect=fixed;imageAspect=0;image=data:image/png,iVBORw0KGgoAAAANSUhEUgAAAE8AAABfCAMAAACePGovAAAAAXNSR0IArs4c6QAAAARnQU1BAACxjwv8YQUAAACiUExURQAAAEBAQEBAQGBgYGZmZlBQUHl5eUpKSkhISHx8fEZGRkpKSnt7e319fUlJSXt7e0hISEdHR0lJSUhISH19fUhISH19fUdHR0lJSUhISEhISH5+fkhISH9/f0lJSUlJSUhISEhISElJSX9/f35+fkhISEhISH9/f0hISH9/f0lJSUhISEhISH9/f0hISH5+fklJSX5+fkhISH9/f0hISH9/f4EcwOYAAAA0dFJOUwAECAgKEBUYICEoMDY3ODxASFBYWGBiaHB4gICHjY+Xn6evr7K3v8XHzc/X3+Hn7u/09/lk87tiAAAACXBIWXMAABcRAAAXEQHKJvM/AAAC7UlEQVRYR+2Wb3+aMBCAUzsnla2ldtoum7XQyhxSy9jx/b/a7pILYH8BEt2LvuB5IZdIHvLnEhDvmTykBbhRpnLKrTqZ7vhmN/I5t+viCcrHyBVZQMrtOggAbjl0YV5CxKGdBew5cmMLDxzZkUMDeMcTSI7sjL5+BnzXeyjuOXai33dbfg/v8ycuudDvizf4sygnuuRCvy+n5JxBqEsu9PsSWgz5//o3LzeRLH0WpN8nwi3sFhwTQRTxCYcRE2BpEvEYBnzHTFM64h5VLNVxp8BJDoCsiJcvziMxk7CkWNZ5/h3mp/lCfbalOf02PlHcneaTB3VZwIwKjS9fnuZLtuoyhTv8bfkOJ/oKvRIio2vjCzDfT/GFsNEJkuywJDNdiKI481jfsMnmJacHvmcx2Zp8yVDl7Gudf5uCgylcH80fUvuk+/soSzgQGbbp8AmzUTpofFOoR75Bc5dvgMZ32zRZYkaf7ZNqWyio9dm+bevYz+/O95Wtcyt5PN/nxEwmknZ3J36+sCiSQ9H3Cejn26UTMUn7Wnj5JurkWZa6ZMXPp9ZsqY9JO37jjXeBCDL6COjCzxcksIe4b4H9fNhD+MmRHV+fx/nnxOg75gHoZeZOPOC7htLja1LMDmrLdTPZQxlLVzYFHHqPK+xgya9ZR9pfi1bmCd/pQopv5pGRkQ/FxUv1+1MdKn5Q4fL1z2dVK8S6qR3m6q36+0WHxleRqfatuFLVDrOqfplHX7wo801VPTc+7ByWKHDyYbOvb3wn+1CIFexbOXbLcFM94zC/qdj4Ll/xqn1Xb2YyHFmja8UjsvjMX65c0VhNJyzjpcf5oJ+/1ivCPlxQLCqfeYIrPHU3OgXrfKFnHPlwyZHhrqrhUlt1L/tU1Wk+nfkEdelodGb+6m3hMJXYLwM1tvjU0mgcfDxvSoz9sPhwCszuHvbhzWY0K2pm8dH21h5euj5aya9Cm4+6bhjyrVvJT7HVp7uI1AszMjIyMvKhEeIfriOiGtgZid0AAAAASUVORK5CYII=;fontSize=17;imageBackground=none;" vertex="1" parent="atEQQB-VKV7B3jNsFOuc-1">
          <mxGeometry x="-582.0020538651314" y="246.99365851151322" width="79" height="95" as="geometry" />
        </mxCell>
        <mxCell id="cGYBdaZTut-XPymzbA_x-1" style="edgeStyle=orthogonalEdgeStyle;rounded=0;orthogonalLoop=1;jettySize=auto;html=1;endArrow=classic;endFill=1;fontSize=17;" edge="1" parent="atEQQB-VKV7B3jNsFOuc-1">
          <mxGeometry relative="1" as="geometry">
            <mxPoint x="-510" y="277" as="sourcePoint" />
            <mxPoint x="-353" y="276" as="targetPoint" />
          </mxGeometry>
        </mxCell>
        <mxCell id="cGYBdaZTut-XPymzbA_x-3" style="edgeStyle=orthogonalEdgeStyle;rounded=0;orthogonalLoop=1;jettySize=auto;html=1;entryX=0.55;entryY=0.95;entryDx=0;entryDy=0;entryPerimeter=0;" edge="1" parent="atEQQB-VKV7B3jNsFOuc-1" source="cGYBdaZTut-XPymzbA_x-2" target="atEQQB-VKV7B3jNsFOuc-35">
          <mxGeometry relative="1" as="geometry" />
        </mxCell>
        <mxCell id="cGYBdaZTut-XPymzbA_x-2" value="" style="shape=image;verticalLabelPosition=bottom;labelBackgroundColor=default;verticalAlign=top;aspect=fixed;imageAspect=0;image=https://cdn-icons-png.flaticon.com/512/7662/7662044.png;" vertex="1" parent="atEQQB-VKV7B3jNsFOuc-1">
          <mxGeometry x="-1204" y="332" width="130" height="130" as="geometry" />
        </mxCell>
      </root>
    </mxGraphModel>
  </diagram>
</mxfile>
